<?xml version="1.0" encoding="UTF-8" standalone="no" ?>
<!DOCTYPE svg PUBLIC "-//W3C//DTD SVG 1.1//EN" "http://www.w3.org/Graphics/SVG/1.1/DTD/svg11.dtd">
<svg xmlns="http://www.w3.org/2000/svg" xmlns:xlink="http://www.w3.org/1999/xlink" version="1.1" width="600" height="600" viewBox="0 0 600 600" xml:space="preserve">
<desc>Created with Fabric.js 4.6.0</desc>
<defs>
</defs>
<g transform="matrix(2.05 0 0 2.05 301.77 26.14)" id="fvXYealOYzvfNyHNildY3"  >
<path style="stroke: rgb(247,47,58); stroke-width: 2; stroke-dasharray: none; stroke-linecap: butt; stroke-dashoffset: 0; stroke-linejoin: miter; stroke-miterlimit: 4; fill: rgb(255,255,255); fill-opacity: 0; fill-rule: nonzero; opacity: 1;" vector-effect="non-scaling-stroke"  transform=" translate(0, 0)" d="M -25 -12.5 L 0 12.5 L 25 -12.5" stroke-linecap="round" />
</g>
<g transform="matrix(1.99 0 0 1.99 300.34 575.42)" id="RghRiLp19bolOZ5C-nlO4"  >
<path style="stroke: rgb(0,153,255); stroke-width: 2; stroke-dasharray: none; stroke-linecap: butt; stroke-dashoffset: 0; stroke-linejoin: miter; stroke-miterlimit: 4; fill: rgb(255,255,255); fill-opacity: 0; fill-rule: nonzero; opacity: 1;" vector-effect="non-scaling-stroke"  transform=" translate(0, 0)" d="M -25 12.5 L 0 -12.5 L 25 12.5" stroke-linecap="round" />
</g>
<g transform="matrix(2.01 0 0 2.01 49.72 549.72)" id="rodU2VvLVcDdCklYLkD0w"  >
<path style="stroke: rgb(247,47,58); stroke-width: 2; stroke-dasharray: none; stroke-linecap: butt; stroke-dashoffset: 0; stroke-linejoin: miter; stroke-miterlimit: 4; fill: rgb(255,255,255); fill-opacity: 0; fill-rule: nonzero; opacity: 1;" vector-effect="non-scaling-stroke"  transform=" translate(0, 0)" d="M -25 -25 L 25 25" stroke-linecap="round" />
</g>
<g transform="matrix(1.98 0 0 1.98 550 551)" id="bzFR9WOptszDpjl4YDOZU"  >
<path style="stroke: rgb(0,153,255); stroke-width: 2; stroke-dasharray: none; stroke-linecap: butt; stroke-dashoffset: 0; stroke-linejoin: miter; stroke-miterlimit: 4; fill: rgb(255,255,255); fill-opacity: 0; fill-rule: nonzero; opacity: 1;" vector-effect="non-scaling-stroke"  transform=" translate(0, 0)" d="M 25 -25 L -25 25" stroke-linecap="round" />
</g>
<g transform="matrix(1.99 0 0 1.99 550.27 50.27)" id="CP76EALJAuRtgLgZ-DNkH"  >
<path style="stroke: rgb(247,47,58); stroke-width: 2; stroke-dasharray: none; stroke-linecap: butt; stroke-dashoffset: 0; stroke-linejoin: miter; stroke-miterlimit: 4; fill: rgb(255,255,255); fill-opacity: 0; fill-rule: nonzero; opacity: 1;" vector-effect="non-scaling-stroke"  transform=" translate(0, 0)" d="M -25 -25 L 25 25" stroke-linecap="round" />
</g>
<g transform="matrix(1.99 0 0 1.99 50.17 49.83)" id="CqeEWpAirjzExY6HiKJgr"  >
<path style="stroke: rgb(0,153,255); stroke-width: 2; stroke-dasharray: none; stroke-linecap: butt; stroke-dashoffset: 0; stroke-linejoin: miter; stroke-miterlimit: 4; fill: rgb(255,255,255); fill-opacity: 0; fill-rule: nonzero; opacity: 1;" vector-effect="non-scaling-stroke"  transform=" translate(0, 0)" d="M -25 25 L 25 -25" stroke-linecap="round" />
</g>
<g transform="matrix(1 0 0 1 0 250)" id="_rEC8hkN3ZQ_RMGilzDEn"  >
<path style="stroke: rgb(0,0,0); stroke-width: 1; stroke-dasharray: none; stroke-linecap: butt; stroke-dashoffset: 0; stroke-linejoin: miter; stroke-miterlimit: 4; fill: rgb(255,255,255); fill-opacity: 0; fill-rule: nonzero; opacity: 1;" vector-effect="non-scaling-stroke"  transform=" translate(0, 0)" d="M 0 0" stroke-linecap="round" />
</g>
<g transform="matrix(1 0 0 1 50 250)" id="53rMT3CCnHkYY16DrB1Hx"  >
<path style="stroke: rgb(255,0,0); stroke-width: 4; stroke-dasharray: none; stroke-linecap: butt; stroke-dashoffset: 0; stroke-linejoin: miter; stroke-miterlimit: 4; fill: rgb(255,255,255); fill-opacity: 0; fill-rule: nonzero; opacity: 1;" vector-effect="non-scaling-stroke"  transform=" translate(0, 0)" d="M -50 0 L 50 0" stroke-linecap="round" />
</g>
<g transform="matrix(1 0 0 1 50 350)" id="yCY5eiPdRbk96bEcT-LcE"  >
<path style="stroke: rgb(0,153,255); stroke-width: 4; stroke-dasharray: none; stroke-linecap: butt; stroke-dashoffset: 0; stroke-linejoin: miter; stroke-miterlimit: 4; fill: rgb(255,255,255); fill-opacity: 0; fill-rule: nonzero; opacity: 1;" vector-effect="non-scaling-stroke"  transform=" translate(0, 0)" d="M -50 0 L 50 0" stroke-linecap="round" />
</g>
<g transform="matrix(1 0 0 1 550 250)" id="5c8iPt7bxBTeNGW7VKHEo"  >
<path style="stroke: rgb(255,0,0); stroke-width: 4; stroke-dasharray: none; stroke-linecap: butt; stroke-dashoffset: 0; stroke-linejoin: miter; stroke-miterlimit: 4; fill: rgb(255,255,255); fill-opacity: 0; fill-rule: nonzero; opacity: 1;" vector-effect="non-scaling-stroke"  transform=" translate(0, 0)" d="M 50 0 L -50 0" stroke-linecap="round" />
</g>
<g transform="matrix(1 0 0 1 550 350)" id="mxSRZA14-7GgxozrVDYYo"  >
<path style="stroke: rgb(0,147,245); stroke-width: 4; stroke-dasharray: none; stroke-linecap: butt; stroke-dashoffset: 0; stroke-linejoin: miter; stroke-miterlimit: 4; fill: rgb(255,255,255); fill-opacity: 0; fill-rule: nonzero; opacity: 1;" vector-effect="non-scaling-stroke"  transform=" translate(0, 0)" d="M 50 0 L -50 0" stroke-linecap="round" />
</g>
<g transform="matrix(1 0 0 1 300 300)" id="tjrMMwuPWPKPJTrC5KVfC"  >
<path style="stroke: rgb(0,0,0); stroke-width: 2; stroke-dasharray: none; stroke-linecap: butt; stroke-dashoffset: 0; stroke-linejoin: miter; stroke-miterlimit: 4; fill: rgb(255,255,255); fill-opacity: 0; fill-rule: nonzero; opacity: 1;" vector-effect="non-scaling-stroke"  transform=" translate(0, 0)" d="M -300 -300 L -300 300 L 300 300 L 300 -300 z" stroke-linecap="round" />
</g>
<g transform="matrix(1 0 0 1 200 500)" id="udxDRPrh88LLUwURtDkp7"  >
<path style="stroke: rgb(47,217,178); stroke-width: 0; stroke-dasharray: none; stroke-linecap: butt; stroke-dashoffset: 0; stroke-linejoin: miter; stroke-miterlimit: 4; fill: rgb(255,243,18); fill-rule: nonzero; opacity: 1;" vector-effect="non-scaling-stroke"  transform=" translate(-7.5, -7.5)" d="M 7.5 0 C 11.64 0 15 3.36 15 7.5 C 15 11.64 11.64 15 7.5 15 C 3.3600000000000003 15 0 11.64 0 7.5 C 0 3.3600000000000003 3.36 0 7.5 0 z" stroke-linecap="round" />
</g>
<g transform="matrix(1 0 0 1 100 100)" id="fckplW_1hjHc4a1GsVYWq"  >
<path style="stroke: rgb(95,187,94); stroke-width: 0; stroke-dasharray: none; stroke-linecap: butt; stroke-dashoffset: 0; stroke-linejoin: miter; stroke-miterlimit: 4; fill: rgb(0,0,0); fill-rule: nonzero; opacity: 1;" vector-effect="non-scaling-stroke"  transform=" translate(-7.5, -7.5)" d="M 7.5 0 C 11.64 0 15 3.36 15 7.5 C 15 11.64 11.64 15 7.5 15 C 3.3600000000000003 15 0 11.64 0 7.5 C 0 3.3600000000000003 3.36 0 7.5 0 z" stroke-linecap="round" />
</g>
<g transform="matrix(1 0 0 1 300 300)" id="l8zowSSWNqrCx9821ZXQL"  >
<path style="stroke: rgb(95,187,94); stroke-width: 0; stroke-dasharray: none; stroke-linecap: butt; stroke-dashoffset: 0; stroke-linejoin: miter; stroke-miterlimit: 4; fill: rgb(0,0,0); fill-rule: nonzero; opacity: 1;" vector-effect="non-scaling-stroke"  transform=" translate(-7.5, -7.5)" d="M 7.5 0 C 11.64 0 15 3.36 15 7.5 C 15 11.64 11.64 15 7.5 15 C 3.3600000000000003 15 0 11.64 0 7.5 C 0 3.3600000000000003 3.36 0 7.5 0 z" stroke-linecap="round" />
</g>
<g transform="matrix(1 0 0 1 500 100)" id="u03u7QE1xwSjRe-SBYPYQ"  >
<path style="stroke: rgb(95,187,94); stroke-width: 0; stroke-dasharray: none; stroke-linecap: butt; stroke-dashoffset: 0; stroke-linejoin: miter; stroke-miterlimit: 4; fill: rgb(0,0,0); fill-rule: nonzero; opacity: 1;" vector-effect="non-scaling-stroke"  transform=" translate(-7.5, -7.5)" d="M 7.5 0 C 11.64 0 15 3.36 15 7.5 C 15 11.64 11.64 15 7.5 15 C 3.3600000000000003 15 0 11.64 0 7.5 C 0 3.3600000000000003 3.36 0 7.5 0 z" stroke-linecap="round" />
</g>
<g transform="matrix(1 0 0 1 300 100)" id="nNnLfOC-NgbErMyOx04nJ"  >
<path style="stroke: rgb(95,187,94); stroke-width: 0; stroke-dasharray: none; stroke-linecap: butt; stroke-dashoffset: 0; stroke-linejoin: miter; stroke-miterlimit: 4; fill: rgb(0,0,0); fill-rule: nonzero; opacity: 1;" vector-effect="non-scaling-stroke"  transform=" translate(-7.5, -7.5)" d="M 7.5 0 C 11.64 0 15 3.36 15 7.5 C 15 11.64 11.64 15 7.5 15 C 3.3600000000000003 15 0 11.64 0 7.5 C 0 3.3600000000000003 3.36 0 7.5 0 z" stroke-linecap="round" />
</g>
<g transform="matrix(1 0 0 1 100 296.56)" id="lsKDQi7TNfQQRz0YAEtGm"  >
<path style="stroke: rgb(95,187,94); stroke-width: 0; stroke-dasharray: none; stroke-linecap: butt; stroke-dashoffset: 0; stroke-linejoin: miter; stroke-miterlimit: 4; fill: rgb(0,0,0); fill-rule: nonzero; opacity: 1;" vector-effect="non-scaling-stroke"  transform=" translate(-7.5, -7.5)" d="M 7.5 0 C 11.64 0 15 3.36 15 7.5 C 15 11.64 11.64 15 7.5 15 C 3.3600000000000003 15 0 11.64 0 7.5 C 0 3.3600000000000003 3.36 0 7.5 0 z" stroke-linecap="round" />
</g>
<g transform="matrix(1 0 0 1 100 500)" id="YOOdXHQ-w8eTY_47gg7DM"  >
<path style="stroke: rgb(95,187,94); stroke-width: 0; stroke-dasharray: none; stroke-linecap: butt; stroke-dashoffset: 0; stroke-linejoin: miter; stroke-miterlimit: 4; fill: rgb(0,0,0); fill-rule: nonzero; opacity: 1;" vector-effect="non-scaling-stroke"  transform=" translate(-7.5, -7.5)" d="M 7.5 0 C 11.64 0 15 3.36 15 7.5 C 15 11.64 11.64 15 7.5 15 C 3.3600000000000003 15 0 11.64 0 7.5 C 0 3.3600000000000003 3.36 0 7.5 0 z" stroke-linecap="round" />
</g>
<g transform="matrix(1 0 0 1 300 500)" id="hjKBNxQ-YjS-sTrDtC6qu"  >
<path style="stroke: rgb(95,187,94); stroke-width: 0; stroke-dasharray: none; stroke-linecap: butt; stroke-dashoffset: 0; stroke-linejoin: miter; stroke-miterlimit: 4; fill: rgb(0,0,0); fill-rule: nonzero; opacity: 1;" vector-effect="non-scaling-stroke"  transform=" translate(-7.5, -7.5)" d="M 7.5 0 C 11.64 0 15 3.36 15 7.5 C 15 11.64 11.64 15 7.5 15 C 3.3600000000000003 15 0 11.64 0 7.5 C 0 3.3600000000000003 3.36 0 7.5 0 z" stroke-linecap="round" />
</g>
<g transform="matrix(1 0 0 1 500 500)" id="5_CzreNAuoNA3-DuP1Ult"  >
<path style="stroke: rgb(95,187,94); stroke-width: 0; stroke-dasharray: none; stroke-linecap: butt; stroke-dashoffset: 0; stroke-linejoin: miter; stroke-miterlimit: 4; fill: rgb(0,0,0); fill-rule: nonzero; opacity: 1;" vector-effect="non-scaling-stroke"  transform=" translate(-7.5, -7.5)" d="M 7.5 0 C 11.64 0 15 3.36 15 7.5 C 15 11.64 11.64 15 7.5 15 C 3.3600000000000003 15 0 11.64 0 7.5 C 0 3.3600000000000003 3.36 0 7.5 0 z" stroke-linecap="round" />
</g>
<g transform="matrix(1 0 0 1 500 300)" id="yKnoL5JaBWQTnARsQCr3A"  >
<path style="stroke: rgb(95,187,94); stroke-width: 0; stroke-dasharray: none; stroke-linecap: butt; stroke-dashoffset: 0; stroke-linejoin: miter; stroke-miterlimit: 4; fill: rgb(0,0,0); fill-rule: nonzero; opacity: 1;" vector-effect="non-scaling-stroke"  transform=" translate(-7.5, -7.5)" d="M 7.5 0 C 11.64 0 15 3.36 15 7.5 C 15 11.64 11.64 15 7.5 15 C 3.3600000000000003 15 0 11.64 0 7.5 C 0 3.3600000000000003 3.36 0 7.5 0 z" stroke-linecap="round" />
</g>
<g transform="matrix(1 0 0 1 200 100)" id="WtQNo9CBBNnj2bTC6noDp"  >
<path style="stroke: rgb(47,217,178); stroke-width: 0; stroke-dasharray: none; stroke-linecap: butt; stroke-dashoffset: 0; stroke-linejoin: miter; stroke-miterlimit: 4; fill: rgb(255,243,18); fill-rule: nonzero; opacity: 1;" vector-effect="non-scaling-stroke"  transform=" translate(-7.5, -7.5)" d="M 7.5 0 C 11.64 0 15 3.36 15 7.5 C 15 11.64 11.64 15 7.5 15 C 3.3600000000000003 15 0 11.64 0 7.5 C 0 3.3600000000000003 3.36 0 7.5 0 z" stroke-linecap="round" />
</g>
<g transform="matrix(1 0 0 1 100 200)" id="v-ZhSVHBxCSre8_mL24tJ"  >
<path style="stroke: rgb(47,217,178); stroke-width: 0; stroke-dasharray: none; stroke-linecap: butt; stroke-dashoffset: 0; stroke-linejoin: miter; stroke-miterlimit: 4; fill: rgb(255,243,18); fill-rule: nonzero; opacity: 1;" vector-effect="non-scaling-stroke"  transform=" translate(-7.5, -7.5)" d="M 7.5 0 C 11.64 0 15 3.36 15 7.5 C 15 11.64 11.64 15 7.5 15 C 3.3600000000000003 15 0 11.64 0 7.5 C 0 3.3600000000000003 3.36 0 7.5 0 z" stroke-linecap="round" />
</g>
<g transform="matrix(1 0 0 1 400 100)" id="WyZzC5NI6UHCE0fAOzpzW"  >
<path style="stroke: rgb(47,217,178); stroke-width: 0; stroke-dasharray: none; stroke-linecap: butt; stroke-dashoffset: 0; stroke-linejoin: miter; stroke-miterlimit: 4; fill: rgb(255,243,18); fill-rule: nonzero; opacity: 1;" vector-effect="non-scaling-stroke"  transform=" translate(-7.5, -7.5)" d="M 7.5 0 C 11.64 0 15 3.36 15 7.5 C 15 11.64 11.64 15 7.5 15 C 3.3600000000000003 15 0 11.64 0 7.5 C 0 3.3600000000000003 3.36 0 7.5 0 z" stroke-linecap="round" />
</g>
<g transform="matrix(1 0 0 1 500 200)" id="_d1FcPBkm5KKAo-jdTVCr"  >
<path style="stroke: rgb(47,217,178); stroke-width: 0; stroke-dasharray: none; stroke-linecap: butt; stroke-dashoffset: 0; stroke-linejoin: miter; stroke-miterlimit: 4; fill: rgb(255,243,18); fill-rule: nonzero; opacity: 1;" vector-effect="non-scaling-stroke"  transform=" translate(-7.5, -7.5)" d="M 7.5 0 C 11.64 0 15 3.36 15 7.5 C 15 11.64 11.64 15 7.5 15 C 3.3600000000000003 15 0 11.64 0 7.5 C 0 3.3600000000000003 3.36 0 7.5 0 z" stroke-linecap="round" />
</g>
<g transform="matrix(1 0 0 1 500 400)" id="QZiwkhCudH7gTXg974Y5n"  >
<path style="stroke: rgb(47,217,178); stroke-width: 0; stroke-dasharray: none; stroke-linecap: butt; stroke-dashoffset: 0; stroke-linejoin: miter; stroke-miterlimit: 4; fill: rgb(255,243,18); fill-rule: nonzero; opacity: 1;" vector-effect="non-scaling-stroke"  transform=" translate(-7.5, -7.5)" d="M 7.5 0 C 11.64 0 15 3.36 15 7.5 C 15 11.64 11.64 15 7.5 15 C 3.3600000000000003 15 0 11.64 0 7.5 C 0 3.3600000000000003 3.36 0 7.5 0 z" stroke-linecap="round" />
</g>
<g transform="matrix(1 0 0 1 400 500)" id="IcWfOxJyQJsOJgA7j6kxj"  >
<path style="stroke: rgb(47,217,178); stroke-width: 0; stroke-dasharray: none; stroke-linecap: butt; stroke-dashoffset: 0; stroke-linejoin: miter; stroke-miterlimit: 4; fill: rgb(255,243,18); fill-rule: nonzero; opacity: 1;" vector-effect="non-scaling-stroke"  transform=" translate(-7.5, -7.5)" d="M 7.5 0 C 11.64 0 15 3.36 15 7.5 C 15 11.64 11.64 15 7.5 15 C 3.3600000000000003 15 0 11.64 0 7.5 C 0 3.3600000000000003 3.36 0 7.5 0 z" stroke-linecap="round" />
</g>
<g transform="matrix(1 0 0 1 100 400)" id="u0wX1FUzH_rnKO9tR1tKm"  >
<path style="stroke: rgb(47,217,178); stroke-width: 0; stroke-dasharray: none; stroke-linecap: butt; stroke-dashoffset: 0; stroke-linejoin: miter; stroke-miterlimit: 4; fill: rgb(255,243,18); fill-rule: nonzero; opacity: 1;" vector-effect="non-scaling-stroke"  transform=" translate(-7.5, -7.5)" d="M 7.5 0 C 11.64 0 15 3.36 15 7.5 C 15 11.64 11.64 15 7.5 15 C 3.3600000000000003 15 0 11.64 0 7.5 C 0 3.3600000000000003 3.36 0 7.5 0 z" stroke-linecap="round" />
</g>
<g transform="matrix(1 0 0 1 200 200)" id="ZK2x8U9poQ0VUZJqDoeAG"  >
<path style="stroke: rgb(112,125,70); stroke-width: 0; stroke-dasharray: none; stroke-linecap: butt; stroke-dashoffset: 0; stroke-linejoin: miter; stroke-miterlimit: 4; fill: rgb(255,243,18); fill-rule: nonzero; opacity: 1;" vector-effect="non-scaling-stroke"  transform=" translate(-9, -9)" d="M 9 0 C 13.968 0 18 4.032 18 9 C 18 13.968 13.968 18 9 18 C 4.032 18 0 13.968 0 9 C 0 4.032 4.032 0 9 0 z" stroke-linecap="round" />
</g>
<g transform="matrix(1 0 0 1 400 200)" id="whb3MOS7Xqb6zQUv-PQL4"  >
<path style="stroke: rgb(112,125,70); stroke-width: 0; stroke-dasharray: none; stroke-linecap: butt; stroke-dashoffset: 0; stroke-linejoin: miter; stroke-miterlimit: 4; fill: rgb(255,243,18); fill-rule: nonzero; opacity: 1;" vector-effect="non-scaling-stroke"  transform=" translate(-9, -9)" d="M 9 0 C 13.968 0 18 4.032 18 9 C 18 13.968 13.968 18 9 18 C 4.032 18 0 13.968 0 9 C 0 4.032 4.032 0 9 0 z" stroke-linecap="round" />
</g>
<g transform="matrix(1 0 0 1 200 400)" id="rajnZvfmpsJnYf6uiNFwu"  >
<path style="stroke: rgb(112,125,70); stroke-width: 0; stroke-dasharray: none; stroke-linecap: butt; stroke-dashoffset: 0; stroke-linejoin: miter; stroke-miterlimit: 4; fill: rgb(255,243,18); fill-rule: nonzero; opacity: 1;" vector-effect="non-scaling-stroke"  transform=" translate(-9, -9)" d="M 9 0 C 13.968 0 18 4.032 18 9 C 18 13.968 13.968 18 9 18 C 4.032 18 0 13.968 0 9 C 0 4.032 4.032 0 9 0 z" stroke-linecap="round" />
</g>
<g transform="matrix(1 0 0 1 400 400)" id="62fCi4-fFU0PeBIUHtVni"  >
<path style="stroke: rgb(112,125,70); stroke-width: 0; stroke-dasharray: none; stroke-linecap: butt; stroke-dashoffset: 0; stroke-linejoin: miter; stroke-miterlimit: 4; fill: rgb(255,243,18); fill-rule: nonzero; opacity: 1;" vector-effect="non-scaling-stroke"  transform=" translate(-9, -9)" d="M 9 0 C 13.968 0 18 4.032 18 9 C 18 13.968 13.968 18 9 18 C 4.032 18 0 13.968 0 9 C 0 4.032 4.032 0 9 0 z" stroke-linecap="round" />
</g>
<g transform="matrix(1 0 0 1 300 200)" id="tANtfFQN6Pl6LiOBLEsty"  >
<path style="stroke: rgb(22,194,80); stroke-width: 0; stroke-dasharray: none; stroke-linecap: butt; stroke-dashoffset: 0; stroke-linejoin: miter; stroke-miterlimit: 4; fill: rgb(255,243,18); fill-rule: nonzero; opacity: 1;" vector-effect="non-scaling-stroke"  transform=" translate(-10, -10)" d="M 10 0 C 15.52 0 20 4.48 20 10 C 20 15.52 15.52 20 10 20 C 4.48 20 0 15.52 0 10 C 0 4.48 4.48 0 10 0 z" stroke-linecap="round" />
</g>
<g transform="matrix(1 0 0 1 400 300)" id="IQthtSwOs_yMDy6FBemKh"  >
<path style="stroke: rgb(22,194,80); stroke-width: 0; stroke-dasharray: none; stroke-linecap: butt; stroke-dashoffset: 0; stroke-linejoin: miter; stroke-miterlimit: 4; fill: rgb(255,243,18); fill-rule: nonzero; opacity: 1;" vector-effect="non-scaling-stroke"  transform=" translate(-10, -10)" d="M 10 0 C 15.52 0 20 4.48 20 10 C 20 15.52 15.52 20 10 20 C 4.48 20 0 15.52 0 10 C 0 4.48 4.48 0 10 0 z" stroke-linecap="round" />
</g>
<g transform="matrix(1 0 0 1 300 400)" id="9n6ZCXy4EHTL7GURdqnIS"  >
<path style="stroke: rgb(22,194,80); stroke-width: 0; stroke-dasharray: none; stroke-linecap: butt; stroke-dashoffset: 0; stroke-linejoin: miter; stroke-miterlimit: 4; fill: rgb(255,243,18); fill-rule: nonzero; opacity: 1;" vector-effect="non-scaling-stroke"  transform=" translate(-10, -10)" d="M 10 0 C 15.52 0 20 4.48 20 10 C 20 15.52 15.52 20 10 20 C 4.48 20 0 15.52 0 10 C 0 4.48 4.48 0 10 0 z" stroke-linecap="round" />
</g>
<g transform="matrix(1 0 0 1 200 300)" id="hgfHmLTzhnICsc0Zv9DBa"  >
<path style="stroke: rgb(22,194,80); stroke-width: 0; stroke-dasharray: none; stroke-linecap: butt; stroke-dashoffset: 0; stroke-linejoin: miter; stroke-miterlimit: 4; fill: rgb(255,243,18); fill-rule: nonzero; opacity: 1;" vector-effect="non-scaling-stroke"  transform=" translate(-10, -10)" d="M 10 0 C 15.52 0 20 4.48 20 10 C 20 15.52 15.52 20 10 20 C 4.48 20 0 15.52 0 10 C 0 4.48 4.48 0 10 0 z" stroke-linecap="round" />
</g>
</svg>